<?xml version="1.0" encoding="UTF-8" standalone="no"?>

<!-- Generator: Adobe Illustrator 16.0.0, SVG Export Plug-In . SVG Version: 6.00 Build 0)  -->

<svg xmlns:rdf="http://www.w3.org/1999/02/22-rdf-syntax-ns#" xmlns="http://www.w3.org/2000/svg" enable-background="new 0 0 500 500" xml:space="preserve" height="300" width="300" version="1.1" y="0px" x="0px" xmlns:cc="http://creativecommons.org/ns#" xmlns:dc="http://purl.org/dc/elements/1.1/" viewBox="0 0 300.00259 300.001"><metadata><rdf:RDF><cc:Work rdf:about=""><dc:format>image/svg+xml</dc:format><dc:type rdf:resource="http://purl.org/dc/dcmitype/StillImage"/><dc:title/></cc:Work></rdf:RDF></metadata>
<path d="m-46.716,3.1152a19.634,26.066,0,1,1,-39.269,0,19.634,26.066,0,1,1,39.269,0z" fill-rule="nonzero" transform="matrix(7.639742,0,0,5.7546108,656.90225,132.07355)" fill="#fec60e"/><g transform="matrix(0.59713786,0,0,0.59713786,-282.01284,-6.6193694)"><path d="m809.56,130.33c-13.159-0.0657-26.52,1.6573-38.812,6.1875-6.9968,2.5786-13.104,7.2462-19.094,11.656-8.319-5.54-19.516-8.2625-28.906-3.8125-10.38-3.47-20.093,4.769-27.656,9.5625-7.5628,4.7935-7.7212,14.81-2.0312,20.5-7.07-2.33-14.946,3.0112-15.906,10.281-7.39-0.91-14.86-0.32625-22.25-1.1562,0.16-3.62,1.0145-7.3859,0.0312-10.875-1.6427-5.8294-5.4212-10.979-9.5312-15.469-14.29-2.09-28.479,2.8738-41.469,8.3438-1.41-5.87-4.9238-11.465-10.344-14.375-3.36-1.52-7.5838-1.6212-10.844,0.21875-16.45,9.2-34.926,18.33-44.656,34.406-2.1469,3.547-2.6562,8.12-2.1562,12.25-7.47,5.68-14.642,12.854-17.312,22.094-1.27,3.61,1.8,6.6112,5,7.5312-0.44,8.9,0.62317,22.154,2,26.594s3.3018,5.5447,5.9375,5.2812c3.8123-0.38104,5.2662-5.8075,6.9062-9.1875,2.77,7.38,5.5847,15.241,11.094,20.875,2.9638,3.0311,7.0928,4.8174,11.094,6.2188,14.855,5.2028,31.083,4.984,46.594,7.6562,5.4971,0.94705,11.074,1.55,16.469,2.9688,6.936,1.8241,13.668,4.3946,20.312,7.0938,3.8643,1.5698,7.4838,3.6622,11.344,5.2812,8.07,3.611,15.579,8.62,21.719,15-2.63,8.96-5.7575,18.995-2.1875,28.125-5.44,3.74-7.6232,10.243-9.6562,16.188-3.6535,10.684-5.9652,22.49-4.0938,33.625,2.9357,17.467,10.928,34.044,23.312,47.75,9.007-12.653,22.839-21.062,36.875-26.969,18.844-7.9302,39.111-11.768,59.031-16.188,2.26-0.561,4.8025-0.7175,6.5625-2.4375,13.261-10.719,25.302-23.136,39.75-32.188,19.891-12.461,42.4-26.376,63.75-29.906,2.32-4.88,3.2128-10.301,5.0938-15.281,13.13-4.21,23.684-13.52,33.094-23.25-2.78-6.1-7.2599-11.159-11.719-16.062-2.8843-3.172-6.125-6.0412-9.625-8.5312,9.309-8.64,15.255-20.132,19.875-31.812-2.45-1.87-4.9045-3.7561-7.625-5.1875-7.2414-3.81-14.685-7.5862-22.875-8.9062,6.96-11.28,8.0369-24.325,8.0938-37.906,0.007-1.6042-0.0412-3.2125-0.0312-4.8125-6.25-1.67-12.755-1.4318-19.156-1.375-3.0328,0.0269-6.0596,0.38655-9.0625,0.8125-1.6181,0.22952-3.2215,0.5475-4.8125,0.9375,0.47-2.38,0.86529-4.8142,1-7.25,0.51959-9.3952,0.539-18.889-0.75-28.219-1.34-0.12-2.6601-0.43311-4-0.40625-9.9093,0.19864-20.038,0.8375-29.438,4.1875-4.399-7.04-9.4653-14.175-16.438-18.656-0.998-0.64149-2.2366-0.8334-3.4063-1.0313-2.9913-0.5061-6.057-0.35985-9.0938-0.375z" fill="#040404"/><path d="m790.61,150.44c3.061-1.22,8.9025-1.555,11.954-0.815,4.939,1.36,10.75,2.9525,14.959,5.9825,4.371,3.38,6.1185,12.375,8.6875,17.255-2.33-1.05-3.8465-1.4025-6.1875-2.4125,2.58,5.49,2.166,10.31,2.025,16.34-11.039,7.36-20.038,17.301-30.34,25.61-10.166,8.1992-20.93,15.64-31.04,23.91,7.341-2.97,13.431-8.28,20.47-11.82-5.5,7.74-10.869,16.915-15.93,24.955-5.96,7.79-18.495,12.29-27.955,11.29-20.53-2.48-36.655-18.985-57.255-21.115-2.36-4.09-5.04-8.14-8.79-11.08-1.92-1.63-4.97-1.02-6.56,0.78-1.39,2.22-1.94,4.84-2.84,7.28-2.9626,2.6914-5.4353,0.91377-7.93-0.59-9.69-0.91-19.44-1.71-28.94-3.91-0.43-5.17-0.83-10.54-3.01-15.3-1.51-3.21-6.42-3.19-8.49-0.6-1.92,2.24-3.35,4.83-5.02,7.25-3.69-2.33-7.15-5.08-11.12-6.94-6.99-3.47-14.827-4.6953-22.457-5.8253,2.93-2.87,6.0177-4.3071,9.6177-5.9871,2.67-1.22,6.2493-2.1176,8.7793-3.5976,10.05,5,21.06-0.21,30.7-3.66-10.25,2.93-23.946,3.465-34.566,2.385-2.18-1.98-0.94378-3.855-2.2238-6.505,5.86,0.64,11.439-0.289,17.279-1.569,7.8-1.81,14.513-2.895,21.773-6.425,7.09-2.81,12.559-10.325,17.179-15.935,2.46,3.98,3.2,10.419,4.79,14.749,0.4,3.93-4.17,5.47-6.09,8.25,2.14-0.76,4.8724-1.4895,6.5913-2.9264,4.88,1.99,9.4562,4.7164,13.036,8.5864,1.87,1.7,2.8551,4.7955,5.6751,4.8555,3.29,3.93,5.5174,8.6945,8.2674,12.994-0.73-6.19-2.95-12.09-5.58-17.69,3.46-0.7,4.23-3.7812,7.78-3.4512,3.91,0.24,9.45,6.1112,13.41,6.1412l0.22015-0.0381c4.7,5.18,8.3298,11.388,11.03,17.808,0.12-6.67-2.83-13.01-6.52-18.42,4.0517-6.1349,12.599-0.69183,20.3,0.68,9.57,3.07,17.48,10.33,23.32,18.39-3.83-10.14-12.9-17.36-22.12-22.49,3.6-2.38,5.1467-6.5478,9.6177-6.5378,5.609-0.59,13.229,3.7073,18.788,2.3973l0.48307,0.0705c8.801,5.61,16.35,13.55,19.96,23.5-0.39-5.96-2.75-11.53-4.829-17.05,4.75,5.42,10.831,10.974,17.939,11.78,5.2489,0.59553,11.189-1.27,14.859-5.51-4.14,1.04-8.6114,2.6128-12.74,1.5-3.1744-0.85564-6.369-2.84-7.889-5.92,7.75,0.24,15.909,1.46,23.31-1.53-3.49,0.08-7.0391,0.44302-10.47-0.2-6.2812-1.1772-12.101-4.17-18-6.6,11.84-2.59,24.039-3.1,36.09-2-1.76-1.22-3.74-2.06-5.74-2.76,5.33-2.82,10.15-6.98,12.27-12.79,1.98,1.75,3.44,3.95,5.061,6.02-0.99-4.36-1.3358-9.1585-3.85-12.86-4.3507-6.4053-11.301-7.55-17.75-7.49-13.84,3.95-23.66,15.15-34.261,24.18-3.04,2.25-6.63,5.58-10.7,4.1-4.97-2.38-9.6-5.43-14.51-7.96-1.14-6.15,3.141-10.93,7.18-14.87-0.789,3.23-0.845,6.1425,1.125,9.1525,3.09,2.62,5.8285,1.8325,9.3775,0.4325,7.261-2.89,11.756-8.6425,17.788-13.362,5.71-4.75,13.102-9.4925,20.012-12.082z" fill="#09934b"/><path d="m721.1,168.69c0.71889-3.9237,4.3285-4.1542,7.969-3.86,0.82978,1.873,1.0634,5.654,2.031,9.61-0.201,2.3-0.261,4.61,0.01,6.91-3.86,0.63-8.47-1-9.88-4.93-1.29-2.44,0.05-5.14-0.13-7.73z" fill="#0a934c"/><path d="m695.51,165.28c-0.14967-3.1643,2.76-6.06,5.57-7.7,10.691-1.4501,14.76,5.7129,17.95,12.95-0.57,2.08-1.7796,4.3486-1.16,6.44,0.64436,2.1751,2.88,3.56,4.66,4.96-4.55-0.13-9.8027,0.43513-13.94-1.76-5.8358-3.0963-12.768-8.291-13.08-14.89z" fill="#0b934a"/><path d="m767.84,144.6c15.552-6.9892,33.56-8.74,50.65-7.15,8.56,5.09,14.521,13.36,19.59,21.73-1.229,2.9-2.203,6.0384-4.21,8.47-2.3358,2.83-5.68,4.69-8.75,6.68,4.891,2.42,10.391,0.38,15.439-0.41,0.791,1.82,1.58,3.64,2.381,5.47-7.381,1.1-14.43,3.69-20.891,7.4,0.141-6.03-0.82-12.1-3.4-17.59,2.341,1.01,4.67,2.05,7,3.1-2.569-4.88-6.0956-9.378-10.5-12.63-4.1278-3.0477-9.2098-4.7644-14.209-5.92-3.0553-0.70625-6.3294-1.2386-9.391-0.56-7.196,1.5951-13.527,6.088-19.449,10.52-6.1414,4.5965-11.97,11.21-18.601,13.55-3.528,1.2452-8.6491,1.8761-11.19-0.87-2.2842-2.4687-0.789-6.86,0-10.09,7.301-8.47,15.343-17.122,25.531-21.7z" fill="#22b14c"/><path d="m770.78,146.48c5.3159-2.4865,10.986-3.733,16.71-4.2,9.4882-0.77412,19.239-0.2,28.46,2.38-11.71,0.39-23.814-0.35846-35.051,3.1-10.201,3.1397-15.928,14.546-25.35,19.56-3.6839,1.9606-7.449,5.01-11.88,3.95,4.431-7.24,10.446-13.521,17.011-18.87,3.0254-2.4649,6.5652-4.2666,10.1-5.92z" fill="#fafdfc"/><path d="m726.56,149.41c7.44-2.12,15.021,0.42,21.49,4.1-2.539,2.53-7.13,8.04-7.13,8.04s-3.1492-5.7337-6.39-8.17c-2.3724-1.7835-5.31-2.67-7.97-3.97z" fill="#20b24b"/><path d="m701.08,157.58c5.92-2.72,11.41-8.6,18.42-7.24,6.87,3.49,12.31,9.23,18.14,14.19-2.91,2.77-5.119,6.15-6.539,9.91-2.41-2.73-3.08-6.14-2.031-9.61-2.979,0.52-5.5146,2.2207-7.969,3.86-0.7677,0.51275-1.55,1.38-2.07,1.84-5.461-4.9-10.611-10.95-17.951-12.95z" fill="#20b24b"/><path d="m708.11,155.87c3.08-1.37,6.07-3.2,9.49-3.52,5.05,1.8,8.92,5.85,13.23,8.92-4.3-0.62-8.4218-2.1432-12.45-3.74-3.3796-1.3397-6.82-1.54-10.27-1.66z" fill="#fafdff"/><path d="m841.45,156.19c7.39-2.54,15.244-3.0587,22.98-3.49,0.59254-0.033,1.33,0.05,1.779,0.07,0.359,3.78,0.8851,7.5721,0.79,11.37-0.13522,5.4001-0.681,10.83-1.931,16.09-5.959-6.2-12.917-11.399-18.699-17.76-1.7886-1.9676-3.529-4-4.919-6.28z" fill="#facc9c"/><path d="m846.89,157.44c4.891-1.23,9.98-1.54,14.99-2.07-2.76,2.83-5.529,5.68-7.789,8.95-2.57-1.93-6.27-3.76-7.201-6.88z" fill="#f7fcfc"/><path d="m569.35,167.08c5.1355-3.7001,10.64-6.89,16.21-9.89,1.72-1.17,3.97-0.78,5.6,0.36,4.21,2.9,7.21,8.12,6.15,13.34-5.93,3.56-13.257,7.2227-16.34,12.8-2.3287,4.213-1.07,12.1,4.32,13.78-1.69-3.42-3.9069-7.9966-1.99-11.31,3.8371-6.6323,13.499-10.484,21.26-13.84,11.636-5.0316,24.08-9.78,36.95-9.01,2.52,1.9,4.3075,4.7032,5.39,7.62,1.539,4.1469,1.69,8.82,1.26,13.21-1.59-4.33-2.33-8.99-4.79-12.97-4.62,5.61-8.45,12.61-15.54,15.42-7.26,3.53-15.19,5.13-22.99,6.94-5.84,1.28-11.84,0.43-17.7-0.21,1.28,2.65,3.04,5.04,5.22,7.02l0.87,0.76c-2.53,1.48-5.05,2.99-7.72,4.21-3.6,1.68-7.71,2.51-10.64,5.38-1.19,0-2.38-0.01-3.57-0.02,5.95,1.97,11.832,4.2854,17.23,7.45,5.6272,3.299,10.51,7.74,15.55,11.88-1.41,2.05-2.75,4.16-3.97,6.33-13.18-7.45-26.558-16.389-41.58-18.59-11.445-1.6768-23.7-0.42-34.41,4.48,4.05-9.25,11.25-17.35,20.42-21.68,11.34-0.88,22.82-6.72,28.01-17.24-6.45,6.13-14.298,11.276-22.89,13.25-2.3551,0.54096-4.88,0.1-7.23-0.53,0.31-2.86,0.92983-5.9277,2.53-8.36,5.8465-8.8868,15.759-14.362,24.39-20.58z" fill="#22b14c"/><path d="m579.29,162.94c2.57-0.96,5.09-2.02,7.63-3.05-0.26,1.48-0.42,3.07-1.37,4.31-3.68,5.26-8.73,9.33-13.59,13.44-7.16,5.49-14.51,11.31-23.42,13.57,1.44-5,6.03-7.86,9.89-10.87-0.6,1.61-1.21,3.22-1.82,4.83,6.73-9.34,16.57-15.53,26.04-21.74-0.84-0.12-2.52-0.37-3.36-0.49z" fill="#0a090b"/><path d="m631.62,166.19c2.66-0.8,5.48-0.99,8.15-0.13-0.44,6.6-5.93,11.21-11.31,14.18-9.66,5.09-20.2,8.49-30.96,10.27-3.17,0.53-5.61-2-8.07-3.55,1.58-1.4,3.14-2.82,4.67-4.28,0.29-0.06,0.88-0.17,1.17-0.23-0.31,0.64-0.93,1.93-1.24,2.57,9.04-4.13,17.02-10.46,26.49-13.7,4.93-1.83,10.14-2.68,15.31-3.52-1.4-0.57-2.8-1.09-4.21-1.61z" fill="#060606"/><path d="m774.71,176.31c3.109-3.89,7.21-6.88,11.67-9.05,3.32,0.47,6.85,1.49,8.93,4.33,3.75,4.51,2.94,11.44-0.869,15.66-5.33-0.44-10.7-0.25-16.01,0.37-1.73,0.69-2.451-1.21-3.15-2.32-1.341-2.72-1.981-6.2-0.571-8.99z" fill="#fdfefd"/><path d="m782.33,175.04c2.33-2.7,6.46-2.68,9.351-0.93-1.65,1.05-3.931,3.13-2.361,5.21,0.861,1.69,2.91,1.09,4.421,1.23-1.601,4.24-6.38,6.63-10.65,4.63,0.12-0.83,0.351-2.5,0.46-3.33-0.73,0.02-2.21,0.07-2.949,0.1-0.232-2.43-0.162-5.11,1.728-6.91z" fill="#040404"/><path d="m683.14,188.57c0.2-3.53,1.43-7.66,5.47-8.3,3.38,0.37,6.26,2.47,8.98,4.36-1.48,1.8-3.8422,2.8086-6.08,3.47-2.6798,0.79198-5.6,0.62-8.37,0.47z" fill="#23b34c"/><path d="m703.07,192.07c3.91-4.25,9.999-5.295,15.48-5.64,9.4956-0.59773,19.642,1.2809,27.832,6.3309-5.56,1.31-11.838-0.83532-16.931-0.70094-4.2906,0.1132-8.36,2.39-11.96,4.77-4.571-2.25-9.471-3.66-14.421-4.76z" fill="#22b14b"/><path d="m872.28,188.41c8.55-1.96,17.39-1.73,26.09-1.27,0.12,10.68-0.75,21.71-5.73,31.36-2.979-5.63-6.7106-10.838-10.289-16.11-3.2254-4.752-6.611-9.39-10.071-13.98z" fill="#f9cc9a"/><path d="m650.09,188.32c6.72,3.62,12.68,8.62,17.36,14.66-2.82-0.06-4.1042-2.5074-6.18-4.43-3.8264-3.544-8.03-6.85-12.91-8.84,0.43-0.35,1.3-1.04,1.73-1.39z" fill="#23b34c"/><path d="m663.57,190.49c5.8,0.25,11.852-0.12831,17.32,2.41,3.9598,1.8383,7.7812,4.6912,10.651,8.0312-3.96-0.03-7.0962-3.4451-10.941-3.8912-3.5081-0.40707-7.07,0.47-10.53,1.17-1.8-2.87-3.94-5.51-6.5-7.72z" fill="#20b24b"/><path d="m569.78,194.48c1.1064-0.35746,3.37-0.9,3.37-0.9s-13.962,11.338-17.57,17.71c-3.73-0.08-7.5-0.38-11.2,0.26-3.57,0.61-6.67,2.58-10,3.88,4.3-4.44,8.83-8.71,13.59-12.64,7.47-2.11,14.407-5.9182,21.81-8.31z" fill="#fdfefd"/><path d="m692.59,195.93c8.41,0.05,16.748,1.8189,24.448,5.2489-8.0692-0.80009-15.813-3.3571-21.038-0.91887-1.19-1.4-2.32-2.86-3.41-4.33z" fill="#27b34b"/><path d="m592.36,200.34c10.62,1.08,21.32,0.03,31.57-2.9-9.64,3.45-20.65,8.66-30.7,3.66l-0.87-0.76z" fill="#090505"/><path d="m834.69,215.39c4.939-1.96,10.75,1.0354,12.64,5.95,2.1094,5.4846,0.71126,12.036-1.44,17.57-1.4809,3.8094-2.81,7.95-5.97,10.71-0.89-5.37-1.9568-10.792-4.04-15.82-1.5726-3.7957-6.3782-6.4924-6.29-10.6,0.0668-3.1085,2-6.54,5.1-7.81z" fill="#FFF"/><path d="m616.67,218.16c0.42,0.05,1.25,0.15,1.67,0.2,2.99,8.59,3.19,17.95,2.71,26.96-6.58-0.42-12.49-3.63-18.36-6.34,4.72-6.9,9-14.11,13.98-20.82z" fill="#FFF"/><path d="m808.28,230.21c4.21-3.75,8.64-7.65,14.33-8.82,1.05,1,1.5191,2.4358,1.52,3.8,0.006,8.3568-2.061,18.02-9.279,23.29-2.291-3.31-0.93746-7.6631-2.33-11.22-0.99978-2.5537-2.411-5-4.241-7.05z" fill="#FFF"/><path d="m567.63,225.54c6.51,1.95,11.94,6.15,17.4,10.02-5.26,6.26-10.26,12.76-15.91,18.67-1.83-1.35-1.8067-3.7801-2.14-5.82-1.2299-7.5266-0.44-15.3,0.65-22.87z" fill="#FFF"/><path d="m554.61,249.1c-4.0066-0.0325-6.3347,2.314-6.125,8.3438,1.7,3.46,3.8088,6.7088,6.2188,9.7188,15.95-5.52,35.678-6.1577,49.844-2.1875s25.632,9.4716,34.969,13.312c9.3372,3.8409,13.524,4.9506,21.719,8.0938,8.1948,3.1431,18.425,5.4764,28,7.625,8.4054,1.9696,16.606,3.4856,24.875,3.875,23.638,1.4529,41.902,1.1603,62.844,0.8125,15.928-0.26452,31.619,1.0796,46.938-2.1875,9.9907-2.1308,21.706-3.6591,28.531-11.188-0.23,3.66-2.0318,6.9908-4.0625,9.9375-5.2692,7.6462-12.444,14.052-20.344,19.031,3.139-0.17,6.4618,0.0438,9.4062-1.0938,4.255-1.6438,7.516-5.1798,11.125-7.9688-0.799,5.23-2.7594,10.234-7.2812,13.812-6.9662,5.5132-16.005,8.679-22.219,14.719-6.2675,6.0919-8.896,15.245-11.375,23.625,5.44-2.66,10.239-6.3861,15.406-9.5,15.655-9.4331,32.442-17.739,49.531-24.688,4.4279-1.8005,8.9452-3.435,13.656-4.375,0.719-1.929,1.4452-3.8502,2.1562-5.7812-8.431,0.221-9.7495-1.2071-17.54,1.6619,5.771-6.789,12.664-9.0254,14.844-18.005,1.22-5.5-3.2459-16.813-4.3359-22.493-3.84,5.69-6.0204,12.351-11.781,16.5-3.429,2.68-1.3579,4.8899-5.5079,5.9989,2.75-4.939,6.3609-10.805,8.2809-16.155,2.83-7.31-3.6164-8.717-4.1474-16.477-63.557,32.334-136.98,13.028-201.75,6.5312-9.65-3.11-17.769,2.1462-27.469-0.84375-4.001,1.581-5.0352-0.1261-6.0938-2.1875-11.21-4.66-19.772-12.423-31.313-16.188-7.5066-2.4486-17.258-0.2725-24.688-0.8125-2.23,2.38-4.0175,5.7812-7.4375,6.5312-3.39,0.46-5.3025-2.8662-6.0625-5.6562-3.3948-1.4454-6.4085-2.3242-8.8125-2.3438z" fill="#0b934a"/><path d="m527.8,228.81c2.98,0.51,5.87,1.38,8.61,2.65,0.67,2.94,2.37,5.78,2.25,8.79-2.33,5.25-4.65,10.54-7.39,15.6-0.96-0.95-1.4383-2.21-1.79-3.46-2.1343-7.5854-2.12-15.7-1.68-23.58z" fill="#FFF"/><path d="m665.59,237.32c0.81933-2.2816,1.4421-4.5928,2.89-6.47,5.43,4.94,9.28,11.44,11.05,18.57-5.74,0.28-11.39-0.86-17.04-1.65,0.72-3.57,1.872-7.0304,3.1-10.45z" fill="#fdfeff"/><path d="m897.6,231.23c7.66,2.05,14.73,5.77,21.641,9.59-3.44,7.43-7.01,15.02-12.74,20.99-2.811-10.24-5.601-20.49-8.901-30.58z" fill="#facc9b"/><path d="m828.89,233.01c3.041,0.84,4.7997,4.1173,5.9,6.95,2.4408,6.2839,2.61,13.68,0.75,20.21-0.67,3.08-4.439,4.04-7,2.68-3.26-1.57-6.71-3.86-7.85-7.49-0.96-3.39,1.2966-6.411,2.369-9.49,1.5482-4.4448,3.8192-9.4175,5.831-12.86z" fill="#FFF"/><path d="m849.92,234.23c3.5,2.07,4.5146,6.4063,4.89,10.14,0.55363,5.5061,0.641,12.31-4.09,16.09-2.789,2.28-7.33,0.51-8.02-2.98-1.15-3.17,1.3714-5.7633,2.85-8.28,2.547-4.3353,3.22-9.92,4.37-14.97z" fill="#FFF"/><path d="m788.11,246.29c3.89-4.7,8.229-9.28,13.869-11.85,0.271,6.94-2.06,14.04-6.969,19.05-1.39-3.13-3.47-6.13-6.9-7.2z" fill="#FFF"/><path d="m849.49,185.51c-11.941,1.32-23.283,6.2014-33.531,12.25-2.8422,1.6776-5.0464,4.2584-7.4688,6.5-15.111,13.983-33.214,33.707-44.031,43.312-10.817,9.6055-17.345,11.239-25.844,9.7812-20.133-3.4525-38.045-15.652-58.645-17.782,1.29,2.92,2.442,5.985,3.082,9.125,11.56,2.56,23.005,6.4455,33.5,11.531,7.4142,3.593,15.277,6.1907,24.031,5.7812,12.524-0.58576,23.758-8.9394,33.875-16.344,12.984-9.5025,23.344-21.105,35.937-30.5,7.5171-5.6078,14.628-12.525,23.562-15.375,6.555-2.0908,14.04-2.8082,20.625-0.8125,7.8225,2.3709,14.901,7.8959,19.844,14.406,3.6153,4.7618,5.6474,10.864,6.25,16.812,0.58857,5.81-0.8475,11.752-2.6875,17.312-0.239-5.97-0.61604-11.988-1.9375-17.812-2.3279-10.26-10.06-15.07-18.531-17,4.09,9.38,7.5252,19.242,7.9062,29.562-3.991,8.06-8.6079,17.101-16.594,21.188-8.4358,4.3168-18.408,2.3054-28.406,1.125-16.278-1.9217-37.749-4.2908-48.812-5.9375-4.5755-0.681-9.0688,1.9538-13.469,3.3438,13.61,2.13,29.379,1.6438,39.719,12.344-18.997-4.7312-38.976-7.7821-57.312-6.9688-14.021,0.68251-26.699-5.525-39.219-10.625-3.66,5.14-9.3062,7.9575-14.656,10.938-2.21,1.31-5.2362-0.935-5.1562-3.375-0.25-4.47,0.89-8.8625,1.25-13.312-8.93-1.64-17.992-2.595-27.062-2.875-3.89,7.25-9.7575,13.286-16.688,17.656,9.7,2.99,19.106,6.8433,28.719,10.094,17.588,6.0663,37.551,10.266,56.844,11.594,28.487,1.9613,55.444,1.4731,83.094-0.15625,6.208-0.36582,12.533-0.51566,18.531-2.1562,8.8838-2.4297,17.417-6.3739,25.25-11.219,6.1671-3.8146,10.771-9.7638,16.781-13.844,0.532,7.76-0.53004,15.659-2.875,23.031-1.712,5.3826-5.25,9.9985-8,14.938,4.15-1.109,8.4617-2.4439,11.781-5.1562,5.3263-4.352,8.035-11.185,11.875-16.875,1.089,5.68,0.0855,11.556-1.8438,16.875-3.0457,8.3977-9.0728,15.524-14.844,22.312,7.79-2.869,15.663-5.9352,24.094-6.1562,5.83-15.059,11.402-30.572,12.312-46.812-1.181-6.42-3.004-12.714-4.9688-18.938-3.2208-10.202-5.9308-20.758-11.156-30.094-4.0619-7.2571-9.6962-13.575-15.406-19.625-5.4-5.58-12.129-10.182-19.719-12.062zm-286,41.812c-4.21,1.77-8.4191,4.0364-12.969,4.375-3.9572,0.29448-8.0188-0.65375-11.719-2.0937,2.86,9.4,5.7575,18.824,9.6875,27.844,4.71-2.64,9.7975-4.42,14.938-6-1.01-8-1.2575-16.145,0.0625-24.125zm24.094,10.281c-3.35,4.48-7.1562,8.6088-10.656,12.969,7.43,0.54,14.673,2.4412,21.812,4.4688,11.676,3.3158,22.978,7.8712,34.188,12.531-0.66-5.47-1.2162-10.949-1.4062-16.469-6.34-0.44-12.831,0.0225-19.031-1.6875-8.91-2.49-16.996-7.1125-24.906-11.812z" fill="#22b14c"/><path d="m902.52,235.51c4.069,2.02,8.25,3.89,12.06,6.41-3.36,1-6.82,1.62-10.31,1.9-0.79-2.72-1.43-5.49-1.75-8.31z" fill="#f8fcfa"/><path d="m625.28,238.42c9.58,1.44,19.31,0.07,28.6-2.41,2.64,0.16,5.28,0.39,7.93,0.59-1.11,3.36-1.94,6.81-2.94,10.2-11.29-0.51-22.59-0.86-33.88-1.42,0.1-2.32,0.21-4.64,0.29-6.96z" fill="#22b14b"/><path d="m799.89,253.68c3.0814-4.131,3.601-9.9,7.5-13.52,3.33,5.47,6.0126,13.366,2.631,18.66-1.5862,2.4832-5.54,2.87-8.461,2.56-2.189-0.34-5.359-0.71-6.09-3.19,0.401-2.23,3.1614-2.8228,4.42-4.51z" fill="#FFF"/><path d="m635.28,249.7c6-0.44,12.06-0.59,18.04,0.13-2.31,5.1-5.7295,9.7455-9.82,13.53-1.9374,1.7925-4.05,3.66-6.75,4.14-0.78-5.9-1.02-11.86-1.47-17.8z" fill="#FFF"/><path d="m685.84,254.28c4.56,1.11,9.18,2.11,13.46,4.11-3.53,4.66-8.18,8.67-13.8,10.51-1.83-0.03-1.042-2.3714-0.98-3.62,0.19604-3.9481,0.93-7.33,1.32-11z" fill="#fdfefd"/><path d="m843.66,273.99c5.0135-0.98111,9.521-3.79,13.93-6.39-4.62,6.95-12.086,12.815-20.05,13.7-3.2999,0.36663-6.6992,0.21532-9.95-0.46-9.4833-1.97-18.319-6.36-27.159-10.33,6.549,0.76,13.087,1.5238,19.609,2.45,7.7647,1.1027,15.886,2.5435,23.62,1.03z" fill="#FFF"/><path d="m905.65,277.47c5.909,4.53,10.34,10.64,14.909,16.45-6.949,6.74-14.399,13.48-23.699,16.73,2.55-11.169,7.49-21.71,8.79-33.18z" fill="#f9cc9a"/><path d="m906.96,285.19c3.6,1.99,7,4.82,9.17,8.31-3.37-0.391-6.729-0.83-10.12-1.061,0.17-2.429,0.49-4.859,0.95-7.249z" fill="#fafdff"/><path d="m795.64,312.12c6.25-0.93,12.541-2.56,18.891-1.969,2.54,0.029,4.57,2.739,3.7,5.189-1.11,4.641-3.341,8.92-5.15,13.311-2.3,5.619-4.5226,7.5377-13.56,10.729s-22.48,7.2721-33.961,10c-20.25,4.8113-40.879,7.899-61.429,11.19-7.13-5.08-14.4-10.101-20.66-16.261-3.81-3.5-4.285-9.245-3.3-13.97s1.36-9.58,3.57-13.859c0.95-2.221,3.75-2.441,5.76-1.681,7.73,2.36,15.58,4.271,23.38,6.399-5.64,8.781-9.63,18.761-9.98,29.291,4.84-10.211,11.66-19.4,19.94-27.09,24.53-1.788,48.67-6.768,72.799-11.279z" fill="#facc9b"/><path d="m797.26,315.95c5.6222-1.5763,9.829-3.039,14.949-2.34,0.9,5.08-2.0276,8.5894-4.57,13.69-1.1604,2.328-2.43,4.71-4.42,6.431-4.25,1.6-8.68,2.689-13.09,3.76,0.15-2.391,0.66413-5.1401-0.55-7.23-1.5944-2.7444-4.9262-4.1945-7.89-5.33-5.0813-1.9468-10.73-2.13-16.17-2.24,10.47-2.7,21.326-3.821,31.741-6.741z" fill="#FFF"/><path d="m777.38,351.02c11.315-2.9815,15.11-5.15,23.08-5.109,1.051,4.279,0.1998,8.7965-1.38,12.779-3.8564,9.7216-10.521,18.65-18.931,25.021-26.889,5.739-54.943,10.13-79.109,24.11-5.6344,3.2596-11.34,6.64-15.78,11.469-8.86-10.709-15.42-26.153-15.8-38.059s0.92-19.801,5.43-28.531c1.39-3.149,5.34-4.699,8.51-3.379,3.59,5.41,8.43,9.859,13.8,13.459-7.85,12.57-10.94,27.78-10.3,42.461,1.25-6.851,3.0634-13.614,5.59-20.09,1.8684-4.7886,4.0949-9.5202,7.02-13.73,3.1718-4.5648,1.7745-4.909,15.19-6.881,13.415-1.972,44.285-8.6726,62.68-13.52z" fill="#facc9b"/><path d="m782.85,353.72c6.9061-2.2102,8.949-3.17,13.699-3.45-2.06,11.561-10.119,20.79-18.23,28.76-3.739,1.271-7.709,1.69-11.629,2.061,3.31-2.82,5.1439-7.8884,3.629-11.67-2.266-5.6567-10.209-7.07-15.979-8.881,9.609-1.8,21.604-4.6098,28.51-6.82z" fill="#FFF"/><path d="m815.33,204.21c9.649-6.37,19.545-15.07,31.14-15.58,5.8141-0.2559,11.574,2.9319,16.24,6.41,4.2541,3.1711,7.2,7.9,9.83,12.52-6.23-6.63-14.068-12.724-22.939-14.21-6.86-1.1488-13.754,2.4062-20.351,4.61-4.8242,1.6115-9.12,4.55-13.92,6.25z" fill="#fcfcfb"/><path d="m879.3,190.52c5.16-0.38,10.35-0.41,15.51,0.03-2.59,3.73-6.27,6.52-9.279,9.89-3.661-2.09-5.841-5.75-6.231-9.92z" fill="#fdfefd"/></g></svg>
