<?xml version="1.0" encoding="utf-8"?>
<!-- Generator: Adobe Illustrator 19.0.0, SVG Export Plug-In . SVG Version: 6.00 Build 0)  -->
<svg version="1.1" id="Layer_1" xmlns="http://www.w3.org/2000/svg" xmlns:xlink="http://www.w3.org/1999/xlink" x="0px" y="0px"
	 viewBox="0 0 500 500" style="enable-background:new 0 0 500 500;" xml:space="preserve">
<style type="text/css">
	.st0{fill:#FFFFFF;}
</style>
<g id="Gator">
	<g id="XMLID_63_">
		<path id="XMLID_33_" class="st0" d="M156.2,203.1c8-1.3,15.9-3.9,23.1-7.7c4-2.2,8.1-5.6,8.4-10.6c-2-0.6-4.1-0.5-6.1,0.1
			c1.1,0.4,2.1,0.8,3.1,1.2c-3.9,0.6-7.7,1.3-11.4,2.6c-7.1,2.4-13,7.1-19.7,10.2c0.2-0.5,0.7-1.4,0.9-1.9c-0.2,0-0.7,0.1-0.9,0.2
			c-1.1,1.1-2.3,2.1-3.5,3.2C152,201.6,153.8,203.5,156.2,203.1z"/>
		<path id="XMLID_32_" class="st0" d="M254.2,183.9v0.1V183.9z"/>
		<path id="XMLID_31_" class="st0" d="M148.5,205.2L148.5,205.2L148.5,205.2L148.5,205.2z"/>
		<path id="XMLID_30_" class="st0" d="M357.8,257.9L357.8,257.9L357.8,257.9L357.8,257.9z"/>
		<path id="XMLID_29_" class="st0" d="M175.9,208.2c-0.1,0-0.1,0-0.2,0.1c-7,1.9-16,2.4-23.5,1.9c0.1,0.1,0.1,0.1,0.2,0.2l0.6,0.6
			c0,0-0.1,0-0.1,0.1c0,0,0.1,0,0.1-0.1c2.1,1,4.3,1.5,6.4,1.5C165,212.6,170.7,210.1,175.9,208.2
			C175.9,208.2,175.8,208.2,175.9,208.2C175.8,208.2,175.8,208.2,175.9,208.2z"/>
		<path id="XMLID_28_" class="st0" d="M147.3,183.5c0.7-0.9,0.8-2.1,1-3.2c-1.9,0.8-3.8,1.6-5.7,2.3c0.6,0.1,1.9,0.3,2.5,0.4
			c-7.1,4.6-14.4,9.2-19.4,16.2c0.5-1.2,0.9-2.4,1.4-3.6c-2.9,2.2-6.3,4.4-7.4,8.1c6.6-1.7,12.1-6,17.4-10.1
			C140.8,190.4,144.5,187.4,147.3,183.5z"/>
		<path id="XMLID_27_" class="st0" d="M294.7,196.6c-0.1,0.6-0.3,1.9-0.3,2.5c3.2,1.5,6.7-0.3,7.9-3.4c-1.1-0.1-2.7,0.3-3.3-0.9
			c-1.2-1.6,0.5-3.1,1.8-3.9c-2.2-1.3-5.2-1.3-7,0.7c-1.4,1.3-1.5,3.3-1.3,5.1C293.1,196.7,294.2,196.6,294.7,196.6z"/>
	</g>
	<g id="XMLID_36_">
		<path id="XMLID_37_" class="st0" d="M385,196.5c-4.7-1.2-9.5-1.1-14.3-1c-2.3,0-4.5,0.3-6.7,0.6c-1.2,0.2-2.4,0.4-3.6,0.7
			c0.4-1.8,0.6-3.6,0.7-5.4c0.4-7,0.4-14.1-0.6-21c-1-0.1-2-0.3-3-0.3c-7.4,0.1-14.9,0.6-21.9,3.1c-3.3-5.2-7-10.6-12.2-13.9
			c-0.7-0.5-1.7-0.6-2.5-0.8c-2.2-0.4-4.5-0.3-6.8-0.3c-9.8,0-19.8,1.2-28.9,4.6c-5.2,1.9-9.8,5.4-14.2,8.7
			c-6.2-4.1-14.5-6.2-21.5-2.8c-7.7-2.6-15,3.6-20.6,7.1c-5.6,3.6-5.7,11-1.5,15.3c-5.3-1.7-11.1,2.2-11.8,7.7
			c-5.5-0.7-11.1-0.2-16.6-0.9c0.1-2.7,0.8-5.5,0-8.1c-1.2-4.3-4-8.2-7.1-11.5c-10.6-1.6-21.2,2.1-30.9,6.2c-1-4.4-3.7-8.5-7.7-10.7
			c-2.5-1.1-5.6-1.2-8.1,0.2c-12.3,6.9-26,13.7-33.3,25.6c-1.6,2.6-2,6-1.6,9.1c-5.6,4.2-10.9,9.6-12.9,16.5
			c-0.9,2.7,1.3,4.9,3.7,5.6c-0.3,6.6,0.5,16.5,1.5,19.8s2.5,4.1,4.4,3.9c2.8-0.3,3.9-4.3,5.1-6.8c2.1,5.5,4.2,11.3,8.3,15.5
			c2.2,2.3,5.3,3.6,8.3,4.6c11.1,3.9,23.2,3.7,34.7,5.7c4.1,0.7,8.2,1.2,12.3,2.2c5.2,1.4,10.2,3.3,15.1,5.3
			c2.9,1.2,5.6,2.7,8.4,3.9c6,2.7,11.6,6.4,16.2,11.2c-2,6.7-4.3,14.1-1.6,20.9c-4.1,2.8-5.7,7.6-7.2,12.1c-2.7,8-4.4,16.8-3,25
			c2.2,13,8.1,25.4,17.4,35.6c6.7-9.4,17-15.7,27.5-20.1c14-5.9,29.1-8.8,44-12.1c1.7-0.4,3.6-0.5,4.9-1.8c9.9-8,18.8-17.2,29.6-24
			c14.8-9.3,31.6-19.7,47.5-22.3c1.7-3.6,2.4-7.7,3.8-11.4c9.8-3.1,17.6-10.1,24.7-17.3c-2.1-4.5-5.4-8.3-8.7-12
			c-2.2-2.4-4.6-4.5-7.2-6.4c6.9-6.4,11.4-15,14.8-23.7c-1.8-1.4-3.7-2.8-5.7-3.9c-5.4-2.8-10.9-5.7-17-6.6c5.2-8.4,6-18.1,6-28.2
			C385,198.9,385,197.7,385,196.5z M355,174.9c0.4,0,1,0,1.3,0c0.3,2.8,0.7,5.6,0.6,8.5c-0.1,4-0.5,8.1-1.4,12
			c-4.4-4.6-9.6-8.5-13.9-13.2c-1.3-1.5-2.6-3-3.7-4.7C343.4,175.6,349.2,175.2,355,174.9z M277.7,174.7c2.3-1.8,4.9-3.2,7.5-4.4
			c4-1.9,8.2-2.8,12.4-3.1c7.1-0.6,14.3-0.1,21.2,1.8c-8.7,0.3-17.7-0.3-26.1,2.3c-7.6,2.3-11.9,10.8-18.9,14.6
			c-2.7,1.5-5.6,3.7-8.8,2.9C268.3,183.4,272.8,178.7,277.7,174.7z M268.3,175.5c-1.9,1.9-5.3,6-5.3,6s-2.3-4.3-4.8-6.1
			c-1.8-1.3-4-2-5.9-3C257.8,170.9,263.5,172.8,268.3,175.5z M233.3,178.5c4.4-2,8.5-6.4,13.7-5.4c5.1,2.6,9.2,6.9,13.5,10.6
			c-2.2,2.1-3.8,4.6-4.9,7.4c-0.1,1.7-0.2,3.4,0,5.1c-2.9,0.5-6.3-0.7-7.4-3.7c-1-1.8,0-3.8-0.1-5.8c-0.6,0.4-1.2,1-1.5,1.4
			c-0.4,1.6-1.3,3.2-0.9,4.8c0.5,1.6,2.1,2.6,3.5,3.7c-3.4-0.1-7.3,0.3-10.4-1.3c-4.3-2.3-9.5-6.2-9.7-11.1
			C229.1,181.9,231.2,179.8,233.3,178.5z M224,195.4c2.5,0.3,4.7,1.8,6.7,3.2c-1.1,1.3-2.9,2.1-4.5,2.6c-2,0.6-4.2,0.5-6.2,0.3
			C220.1,199,221,195.9,224,195.4z M112.3,240.1c-1.7,3.9-3.5,7.9-5.5,11.6c-0.7-0.7-1.1-1.6-1.3-2.6c-1.6-5.7-1.6-11.7-1.3-17.6
			c2.2,0.4,4.4,1,6.4,2C111.2,235.8,112.4,237.9,112.3,240.1z M306.3,328.3c-2.9,7.2-7.8,13.9-14.1,18.6c-20,4.3-40.9,7.5-58.9,18
			c-4.2,2.4-8.4,4.9-11.8,8.5c-6.6-8-11.5-19.5-11.8-28.4s0.7-14.7,4-21.2c1-2.3,4-3.5,6.3-2.5c2.7,4,6.3,7.3,10.3,10
			c-5.8,9.4-8.1,20.7-7.7,31.6c0.9-5.1,2.3-10.1,4.2-15c1.4-3.6,3.1-7.1,5.2-10.2c2.4-3.4,1.3-3.7,11.3-5.1c10-1.5,33-6.5,46.7-10.1
			c8.4-2.2,11.3-3.8,17.2-3.8C308.1,322,307.5,325.4,306.3,328.3z M249.5,302.1c18.3-1.3,36.2-5,54.2-8.4c4.7-0.7,9.3-1.9,14.1-1.5
			c1.9,0,3.4,2,2.8,3.9c-0.8,3.5-2.5,6.6-3.8,9.9c-1.7,4.2-3.4,5.6-10.1,8s-16.7,5.4-25.3,7.5c-15.1,3.6-30.4,5.9-45.8,8.3
			c-5.3-3.8-10.7-7.5-15.4-12.1c-2.8-2.6-3.2-6.9-2.5-10.4s1-7.1,2.7-10.3c0.7-1.7,2.8-1.8,4.3-1.3c5.8,1.8,11.6,3.2,17.4,4.8
			c-4.2,6.5-7.2,14-7.4,21.8C238.3,314.6,243.4,307.8,249.5,302.1z M396.8,280.1c-5.2,5-10.7,10-17.7,12.5
			c1.9-8.3,5.6-16.2,6.6-24.7C390.1,271.2,393.4,275.8,396.8,280.1z M395.8,240.5c-2.6,5.5-5.2,11.2-9.5,15.6
			c-2.1-7.6-4.2-15.3-6.6-22.8C385.4,234.9,390.7,237.7,395.8,240.5z M382,259.5c-0.7,12.1-4.8,23.7-9.2,34.9l0,0
			c-0.5,1.4-1.1,2.9-1.6,4.3c-3.5,0.7-6.9,1.9-10.2,3.3c-12.7,5.2-25.2,11.4-36.9,18.4c-3.8,2.3-7.4,5.1-11.5,7.1
			c1.8-6.2,3.8-13.1,8.5-17.6c4.6-4.5,11.4-6.9,16.5-11c3.4-2.7,4.8-6.4,5.4-10.3c-2.7,2.1-5.1,4.7-8.3,5.9c-2.2,0.8-4.7,0.7-7,0.8
			c5.9-3.7,11.2-8.5,15.2-14.2c1.5-2.2,2.9-4.7,3-7.4c-5.1,5.6-13.8,6.7-21.2,8.3c-11.4,2.4-23.1,1.4-35,1.6
			c-15.6,0.3-29.2,0.5-46.8-0.6c-6.2-0.3-12.3-1.4-18.5-2.9c-7.1-1.6-14.8-3.3-20.9-5.7c-6.1-2.3-9.2-3.2-16.2-6
			c-7-2.9-15.5-7-26-9.9c-10.6-3-25.2-2.5-37.1,1.6c-1.8-2.2-3.4-4.7-4.6-7.2l0,0c-2.9-6.7-5.1-13.7-7.2-20.7
			c2.8,1.1,5.8,1.8,8.7,1.6c3.4-0.3,6.5-1.9,9.7-3.3c-1,5.9-0.8,12,0,18l0,0c0.6,2.1,2,4.5,4.5,4.2c2.5-0.6,3.9-3.1,5.5-4.9l0,0
			c2.6-3.2,5.4-6.3,7.9-9.7c5.9,3.5,11.9,6.9,18.6,8.8c4.6,1.3,9.5,0.9,14.2,1.3c0.1,4.1,0.6,8.2,1.1,12.3l0,0
			c0.8,1.5,1.6,2.8,4.5,1.6l0,0c5.2-3.3,9.5-7.8,12.4-13.2c6.8,0.2,13.5,0.9,20.2,2.1c-0.3,3.3-1.1,6.6-0.9,9.9
			c-0.1,1.8,2.2,3.5,3.8,2.5c4-2.2,8.2-4.3,10.9-8.1c9.3,3.8,18.8,8.4,29.2,7.9c13.7-0.6,28.5,1.7,42.7,5.2
			c-7.7-8-19.4-7.6-29.6-9.2c3.3-1,6.6-3,10-2.5c8.2,1.2,24.2,3,36.4,4.4c7.4,0.9,14.9,2.4,21.2-0.8c5.9-3,9.4-9.8,12.4-15.8
			c-0.3-7.7-2.8-15-5.9-22c6.3,1.4,12.1,5,13.8,12.7c1,4.3,1.3,8.8,1.4,13.3c1.4-4.1,2.4-8.6,2-12.9c-0.4-4.4-2-9-4.7-12.5
			c-3.7-4.8-9-9-14.8-10.7c-4.9-1.5-10.5-1-15.4,0.6c-6.7,2.1-12,7.3-17.5,11.5c-9.4,7-17.1,15.6-26.8,22.7
			c-7.5,5.5-15.9,11.7-25.2,12.2c-6.5,0.3-12.4-1.6-17.9-4.3c-7.8-3.8-16.3-6.7-24.9-8.6c-0.5-2.3-1.3-4.6-2.3-6.8
			c-1.8-3-3.7-6-6.5-8.2c-1.4-1.2-3.7-0.8-4.9,0.6c-1,1.7-1.4,3.6-2.1,5.4l0,0l0,0c-0.8,2.5-1.4,5.1-2.2,7.6
			c-8.4-0.4-16.8-0.6-25.2-1.1c0.1-1.7,0.2-3.5,0.2-5.2c7.1,1.1,14.4,0.1,21.3-1.8l0,0c-7.2-0.7-14.5-1.3-21.6-2.9
			c-0.3-3.8-0.6-7.8-2.2-11.4c-1.1-2.4-4.8-2.4-6.3-0.4c-1.4,1.7-2.5,3.6-3.7,5.4c-2.7-1.7-5.3-3.8-8.3-5.2
			c-5.2-2.6-11-3.5-16.7-4.3l0,0c-0.9,0-1.8,0-2.7,0c4.4,1.5,8.8,3.2,12.8,5.5c4.2,2.5,7.8,5.8,11.6,8.9c-1.1,1.5-2.1,3.1-3,4.7
			c-9.8-5.6-19.8-12.2-31-13.8c-8.5-1.2-17.7-0.3-25.6,3.3c3-6.9,8.4-12.9,15.2-16.1c8.4-0.7,17-5,20.9-12.8
			c-4.8,4.6-10.6,8.4-17,9.9c-1.8,0.4-3.6,0.1-5.4-0.4c0.2-2.1,0.7-4.4,1.9-6.2c4.4-6.6,11.7-10.7,18.2-15.3
			c3.8-2.8,7.9-5.1,12.1-7.4c1.3-0.9,3-0.6,4.2,0.3c3.1,2.2,5.4,6,4.6,9.9c-4.4,2.7-9.9,5.4-12.2,9.5c-1.7,3.1-0.8,9,3.2,10.3
			c-1.3-2.5-2.9-6-1.5-8.4c2.9-4.9,10.1-7.8,15.8-10.3c8.7-3.7,17.9-7.3,27.5-6.7c1.9,1.4,3.2,3.5,4,5.7c1.1,3.1,1.3,6.6,0.9,9.8
			l0,0c0.3,2.9-3.1,4.1-4.5,6.1c1.6-0.6,3.6-1.1,4.8-2.1c0.3-0.3,0.9-0.7,1.1-0.9c5,2.7,9.4,6.4,12.9,10.9l0,0
			c2.4,2.9,4.1,6.4,6.1,9.6c-0.5-4.6-2.2-9-4.2-13.2l0,0c-1.3-2.1-2.9-4.1-4.8-5.8c4.3,0.2,8.8-0.1,12.9,1.8c2.9,1.4,5.8,3.5,7.9,6
			l0,0c3.5,3.8,6.2,8.5,8.2,13.2c0.1-5-2.1-9.7-4.9-13.7l0,0c-0.9-1-1.7-2.1-2.5-3.2c6.3,0,12.5,1.4,18.2,3.9c0,0,0,0-0.1,0
			c6.9,2.4,12.6,7.7,16.9,13.5c-2.9-7.6-9.6-12.9-16.5-16.8l0,0c-3.4-1.7-7.1-2.7-10.7-3.5c2.9-3.2,7.4-3.9,11.5-4.2
			c7.1-0.4,14.6,1,20.7,4.7c6.6,4.2,12.2,10.1,14.9,17.5c-0.3-4.4-2-8.6-3.6-12.7c3.5,4,8.1,8.2,13.4,8.8c3.9,0.4,8.3-0.9,11.1-4.1
			c-3.1,0.8-6.4,1.9-9.5,1.1c-2.4-0.6-4.7-2.1-5.9-4.4c5.8,0.2,11.8,1.1,17.4-1.1c-2.6,0.1-5.2,0.3-7.8-0.1c-4.7-0.9-9-3.1-13.4-4.9
			c8.8-1.9,17.9-2.3,26.9-1.5c-1.3-0.9-2.8-1.5-4.3-2.1c4-2.1,7.6-5.2,9.1-9.5c1.5,1.3,2.6,2.9,3.8,4.5c-0.7-3.2-1-6.8-2.9-9.6
			c-3.2-4.8-8.4-5.6-13.2-5.6c-10.3,2.9-17.6,11.3-25.5,18c-2.3,1.7-4.9,4.2-8,3.1c-3.7-1.8-7.2-4-10.8-5.9
			c-0.9-4.6,2.3-8.1,5.3-11.1c-0.6,2.4-0.6,4.6,0.8,6.8c2.3,2,4.3,1.4,7,0.3c5.4-2.2,8.8-6.4,13.2-10c4.3-3.5,9.8-7.1,14.9-9
			c2.3-0.9,6.6-1.2,8.9-0.6c3.7,1,8,2.2,11.1,4.5c3.3,2.5,4.6,9.2,6.5,12.9c-1.7-0.8-2.9-1-4.6-1.8c1.9,4.1,1.6,7.7,1.5,12.2
			c-8.2,5.5-14.9,12.9-22.6,19.1c-7.6,6.1-15.6,11.6-23.1,17.8c5.5-2.2,10-6.2,15.2-8.8c-3.1,4.4-6.1,9.3-9.1,14.1
			c8.1-7.8,19.6-20.1,29.4-29.2c1.8-1.7,3.4-3.6,5.6-4.8c7.6-4.5,16.1-8.1,25-9.1c5.7,1.4,10.7,4.8,14.7,9
			c4.3,4.5,8.4,9.2,11.5,14.6c3.9,7,5.9,14.8,8.3,22.4C379.8,250,381.1,254.7,382,259.5z M133.9,229.2c4.8,1.5,8.9,4.6,13,7.5
			c-3.9,4.7-7.6,9.5-11.8,13.9c-1.4-1-1.3-2.8-1.6-4.3C132.5,240.6,133.1,234.8,133.9,229.2z M160,239.2c3.5-5.1,6.7-10.5,10.4-15.5
			c0.3,0,0.9,0.1,1.2,0.2c2.2,6.4,2.4,13.4,2,20.1C168.8,243.6,164.4,241.2,160,239.2z M184.3,247.2c4.5-0.3,9-0.4,13.4,0.1
			c-1.7,3.8-4.3,7.3-7.3,10.1c-1.4,1.3-3,2.7-5,3.1C184.8,256,184.6,251.6,184.3,247.2z M204.6,245.7c0.5-2.7,1.4-5.2,2.3-7.8
			c0.6-1.7,1.1-3.4,2.2-4.8c4,3.7,6.9,8.5,8.2,13.8C213,247.2,208.8,246.3,204.6,245.7z M221,258.8c0.1-2.9,0.7-5.5,1-8.2
			c3.4,0.8,6.8,1.6,10,3.1c-2.6,3.5-6.1,6.5-10.3,7.8C220.4,261.4,220.9,259.7,221,258.8z M341.2,239.1c-1.1,2.8-2.1,5.9-4.4,8
			c-0.7-4-1.5-8-3-11.8c-1.2-2.8-4.8-4.8-4.7-7.9c0.1-2.3,1.5-4.9,3.8-5.8c3.7-1.5,8,0.8,9.4,4.4C343.8,230.1,342.8,235,341.2,239.1
			z M344.2,235.6c2.6,1.5,3.4,4.8,3.6,7.6c0.4,4.1,0.5,9.2-3,12c-2.1,1.7-5.5,0.4-6-2.2c-0.9-2.4,1-4.3,2.1-6.2
			C342.8,243.6,343.3,239.4,344.2,235.6z M332.9,239.9c1.8,4.7,1.9,10.2,0.6,15.1c-0.5,2.3-3.3,3-5.2,2c-2.4-1.2-5-2.9-5.8-5.6
			c-0.7-2.5,1-4.8,1.8-7.1c1.2-3.3,2.8-7,4.3-9.6C330.8,235.4,332.1,237.8,332.9,239.9z M318.1,246.3c-1.7-2.5-0.7-5.7-1.7-8.4
			c-0.7-1.9-1.8-3.7-3.2-5.3c3.1-2.8,6.4-5.7,10.7-6.6c0.8,0.7,1.1,1.8,1.1,2.8C325,235.1,323.4,242.3,318.1,246.3z M314.5,254
			c-1.2,1.9-4.1,2.1-6.3,1.9c-1.6-0.3-4-0.5-4.5-2.4c0.3-1.7,2.4-2.1,3.3-3.4c2.3-3.1,2.7-7.4,5.6-10.1C315,244.1,317,250,314.5,254
			z M303.3,250c-1-2.3-2.6-4.6-5.1-5.4c2.9-3.5,6.1-6.9,10.3-8.8C308.7,241,306.9,246.3,303.3,250z M288.2,192.5
			c2.3-2.9,5.4-5.1,8.7-6.7c2.5,0.4,5.1,1.1,6.7,3.2c2.8,3.4,2.2,8.5-0.6,11.7c-4-0.3-8-0.2-11.9,0.3c-1.3,0.5-1.8-0.9-2.3-1.7
			C287.6,197.2,287.1,194.6,288.2,192.5z M376,223.9c-2.2-4.2-5-8.1-7.7-12c-2.4-3.5-4.9-7-7.5-10.4c6.4-1.5,12.9-1.3,19.4-0.9
			C380.4,208.5,379.7,216.7,376,223.9z"/>
	</g>
</g>
</svg>
