<?xml version="1.0" encoding="utf-8"?>
<!-- Generator: Adobe Illustrator 19.0.0, SVG Export Plug-In . SVG Version: 6.00 Build 0)  -->
<svg version="1.1" id="Layer_1" xmlns="http://www.w3.org/2000/svg" xmlns:xlink="http://www.w3.org/1999/xlink" x="0px" y="0px"
	 width="60px" height="30px" viewBox="0 0 60 30" enable-background="new 0 0 60 30" xml:space="preserve">
<g id="Gator">
	<g id="XMLID_63_">
		<path id="XMLID_33_" fill="#101119" d="M18.119,5.973c1.012-0.165,2.012-0.493,2.923-0.974c0.506-0.278,1.025-0.709,1.063-1.341
			c-0.253-0.076-0.519-0.063-0.772,0.013c0.139,0.051,0.266,0.101,0.392,0.152c-0.494,0.076-0.974,0.164-1.442,0.329
			c-0.898,0.304-1.645,0.898-2.493,1.291c0.025-0.063,0.089-0.177,0.114-0.24c-0.025,0-0.089,0.013-0.114,0.025
			c-0.139,0.139-0.291,0.266-0.443,0.405C17.588,5.783,17.816,6.024,18.119,5.973z"/>
		<path id="XMLID_32_" fill="#101119" d="M30.519,3.544v0.013V3.544z"/>
		<path id="XMLID_31_" fill="#101119" d="M17.145,6.239L17.145,6.239L17.145,6.239L17.145,6.239z"/>
		<path id="XMLID_30_" fill="#101119" d="M43.627,12.907L43.627,12.907L43.627,12.907L43.627,12.907z"/>
		<path id="XMLID_29_" fill="#101119" d="M20.612,6.619c-0.013,0-0.013,0-0.025,0.013c-0.886,0.24-2.024,0.304-2.973,0.24
			c0.013,0.013,0.013,0.013,0.025,0.025l0.076,0.076c0,0-0.013,0-0.013,0.013c0,0,0.013,0,0.013-0.013
			c0.266,0.127,0.544,0.19,0.81,0.19C19.233,7.175,19.954,6.859,20.612,6.619C20.612,6.619,20.599,6.619,20.612,6.619
			C20.599,6.619,20.599,6.619,20.612,6.619z"/>
		<path id="XMLID_28_" fill="#101119" d="M16.993,3.493c0.089-0.114,0.101-0.266,0.127-0.405c-0.24,0.101-0.481,0.202-0.721,0.291
			c0.076,0.013,0.24,0.038,0.316,0.051c-0.898,0.582-1.822,1.164-2.455,2.05c0.063-0.152,0.114-0.304,0.177-0.456
			c-0.367,0.278-0.797,0.557-0.936,1.025c0.835-0.215,1.531-0.759,2.202-1.278C16.171,4.366,16.639,3.987,16.993,3.493z"/>
		<path id="XMLID_27_" fill="#101119" d="M35.644,5.151c-0.013,0.076-0.038,0.24-0.038,0.316c0.405,0.19,0.848-0.038,1-0.43
			c-0.139-0.013-0.342,0.038-0.418-0.114c-0.152-0.202,0.063-0.392,0.228-0.493c-0.278-0.164-0.658-0.164-0.886,0.089
			c-0.177,0.164-0.19,0.418-0.164,0.645C35.441,5.163,35.58,5.151,35.644,5.151z"/>
	</g>
	<g id="XMLID_36_">
		<path id="XMLID_37_" fill="#101119" d="M47.069,5.138c-0.595-0.152-1.202-0.139-1.809-0.127c-0.291,0-0.569,0.038-0.848,0.076
			c-0.152,0.025-0.304,0.051-0.456,0.089c0.051-0.228,0.076-0.456,0.089-0.683c0.051-0.886,0.051-1.784-0.076-2.657
			c-0.127-0.013-0.253-0.038-0.38-0.038c-0.936,0.013-1.885,0.076-2.771,0.392c-0.418-0.658-0.886-1.341-1.544-1.759
			c-0.089-0.063-0.215-0.076-0.316-0.101c-0.278-0.051-0.569-0.038-0.86-0.038c-1.24,0-2.505,0.152-3.657,0.582
			c-0.658,0.24-1.24,0.683-1.797,1.101c-0.784-0.519-1.835-0.784-2.72-0.354c-0.974-0.329-1.898,0.456-2.606,0.898
			c-0.709,0.455-0.721,1.392-0.19,1.936c-0.671-0.215-1.404,0.278-1.493,0.974c-0.696-0.089-1.404-0.025-2.1-0.114
			c0.013-0.342,0.101-0.696,0-1.025c-0.152-0.544-0.506-1.038-0.898-1.455c-1.341-0.202-2.682,0.266-3.91,0.784
			c-0.127-0.557-0.468-1.075-0.974-1.354c-0.316-0.139-0.709-0.152-1.025,0.025c-1.556,0.873-3.29,1.733-4.213,3.239
			c-0.202,0.329-0.253,0.759-0.202,1.151c-0.709,0.531-1.379,1.215-1.632,2.088c-0.114,0.342,0.164,0.62,0.468,0.709
			c-0.038,0.835,0.063,2.088,0.19,2.505c0.127,0.418,0.316,0.519,0.557,0.493c0.354-0.038,0.493-0.544,0.645-0.86
			c0.266,0.696,0.531,1.43,1.05,1.961c0.278,0.291,0.671,0.455,1.05,0.582c1.404,0.494,2.935,0.468,4.391,0.721
			c0.519,0.089,1.038,0.152,1.556,0.278c0.658,0.177,1.291,0.418,1.911,0.671c0.367,0.152,0.709,0.342,1.063,0.493
			c0.759,0.342,1.468,0.81,2.05,1.417c-0.253,0.848-0.544,1.784-0.202,2.644c-0.519,0.354-0.721,0.962-0.911,1.531
			c-0.342,1.012-0.557,2.126-0.38,3.163c0.278,1.645,1.025,3.214,2.202,4.504c0.848-1.189,2.151-1.987,3.48-2.543
			c1.771-0.747,3.682-1.113,5.567-1.531c0.215-0.051,0.456-0.063,0.62-0.228c1.253-1.012,2.379-2.176,3.745-3.037
			c1.873-1.177,3.998-2.493,6.01-2.822c0.215-0.456,0.304-0.974,0.481-1.442c1.24-0.392,2.227-1.278,3.125-2.189
			c-0.266-0.569-0.683-1.05-1.101-1.518c-0.278-0.304-0.582-0.569-0.911-0.81c0.873-0.81,1.442-1.898,1.873-2.999
			c-0.228-0.177-0.468-0.354-0.721-0.493c-0.683-0.354-1.379-0.721-2.151-0.835c0.658-1.063,0.759-2.29,0.759-3.568
			C47.069,5.442,47.069,5.29,47.069,5.138z M43.273,2.405c0.051,0,0.127,0,0.164,0c0.038,0.354,0.089,0.709,0.076,1.075
			c-0.013,0.506-0.063,1.025-0.177,1.518c-0.557-0.582-1.215-1.075-1.759-1.67c-0.165-0.19-0.329-0.38-0.468-0.595
			C41.805,2.494,42.539,2.443,43.273,2.405z M33.493,2.38c0.291-0.228,0.62-0.405,0.949-0.557c0.506-0.24,1.037-0.354,1.569-0.392
			c0.898-0.076,1.809-0.013,2.682,0.228c-1.101,0.038-2.24-0.038-3.302,0.291c-0.962,0.291-1.506,1.367-2.391,1.847
			c-0.342,0.19-0.709,0.468-1.113,0.367C32.303,3.481,32.873,2.886,33.493,2.38z M32.303,2.481c-0.24,0.24-0.671,0.759-0.671,0.759
			s-0.291-0.544-0.607-0.772c-0.228-0.164-0.506-0.253-0.747-0.38C30.975,1.899,31.696,2.139,32.303,2.481z M27.875,2.861
			c0.557-0.253,1.075-0.81,1.733-0.683c0.645,0.329,1.164,0.873,1.708,1.341c-0.278,0.266-0.481,0.582-0.62,0.936
			c-0.013,0.215-0.025,0.43,0,0.645c-0.367,0.063-0.797-0.089-0.936-0.468c-0.127-0.228,0-0.481-0.013-0.734
			c-0.076,0.051-0.152,0.127-0.19,0.177c-0.051,0.202-0.165,0.405-0.114,0.607c0.063,0.202,0.266,0.329,0.443,0.468
			c-0.43-0.013-0.924,0.038-1.316-0.164c-0.544-0.291-1.202-0.784-1.227-1.404C27.343,3.291,27.609,3.025,27.875,2.861z
			 M26.698,4.999c0.316,0.038,0.595,0.228,0.848,0.405c-0.139,0.164-0.367,0.266-0.569,0.329c-0.253,0.076-0.531,0.063-0.784,0.038
			C26.205,5.454,26.318,5.062,26.698,4.999z M12.565,10.655c-0.215,0.493-0.443,1-0.696,1.468c-0.089-0.089-0.139-0.202-0.164-0.329
			c-0.202-0.721-0.202-1.48-0.164-2.227c0.278,0.051,0.557,0.127,0.81,0.253C12.426,10.111,12.577,10.376,12.565,10.655z
			 M37.111,21.814c-0.367,0.911-0.987,1.759-1.784,2.353c-2.531,0.544-5.175,0.949-7.453,2.278c-0.531,0.304-1.063,0.62-1.493,1.075
			c-0.835-1.012-1.455-2.467-1.493-3.593c-0.038-1.126,0.089-1.86,0.506-2.682c0.127-0.291,0.506-0.443,0.797-0.316
			c0.342,0.506,0.797,0.924,1.303,1.265c-0.734,1.189-1.025,2.619-0.974,3.998c0.114-0.645,0.291-1.278,0.531-1.898
			c0.177-0.456,0.392-0.898,0.658-1.291c0.304-0.43,0.164-0.468,1.43-0.645c1.265-0.19,4.175-0.822,5.909-1.278
			c1.063-0.278,1.43-0.481,2.176-0.481C37.339,21.017,37.263,21.448,37.111,21.814z M29.924,18.499
			c2.315-0.165,4.58-0.633,6.858-1.063c0.595-0.089,1.177-0.24,1.784-0.19c0.24,0,0.43,0.253,0.354,0.493
			c-0.101,0.443-0.316,0.835-0.481,1.253c-0.215,0.531-0.43,0.709-1.278,1.012c-0.848,0.304-2.113,0.683-3.201,0.949
			c-1.911,0.456-3.846,0.747-5.795,1.05c-0.671-0.481-1.354-0.949-1.949-1.531c-0.354-0.329-0.405-0.873-0.316-1.316
			c0.089-0.443,0.127-0.898,0.342-1.303c0.089-0.215,0.354-0.228,0.544-0.164c0.734,0.228,1.468,0.405,2.202,0.607
			c-0.531,0.822-0.911,1.771-0.936,2.758C28.507,20.081,29.153,19.221,29.924,18.499z M48.562,15.716
			c-0.658,0.633-1.354,1.265-2.24,1.582c0.24-1.05,0.709-2.05,0.835-3.125C47.714,14.59,48.132,15.172,48.562,15.716z
			 M48.435,10.705c-0.329,0.696-0.658,1.417-1.202,1.974c-0.266-0.962-0.531-1.936-0.835-2.885
			C47.12,9.997,47.79,10.351,48.435,10.705z M46.689,13.109c-0.089,1.531-0.607,2.999-1.164,4.416l0,0
			c-0.063,0.177-0.139,0.367-0.202,0.544c-0.443,0.089-0.873,0.24-1.291,0.418c-1.607,0.658-3.189,1.442-4.669,2.328
			c-0.481,0.291-0.936,0.645-1.455,0.898c0.228-0.784,0.481-1.658,1.075-2.227c0.582-0.569,1.442-0.873,2.088-1.392
			c0.43-0.342,0.607-0.81,0.683-1.303c-0.342,0.266-0.645,0.595-1.05,0.747c-0.278,0.101-0.595,0.089-0.886,0.101
			c0.747-0.468,1.417-1.075,1.923-1.797c0.19-0.278,0.367-0.595,0.38-0.936c-0.645,0.709-1.746,0.848-2.682,1.05
			c-1.442,0.304-2.923,0.177-4.428,0.202c-1.974,0.038-3.695,0.063-5.922-0.076c-0.784-0.038-1.556-0.177-2.341-0.367
			c-0.898-0.202-1.873-0.418-2.644-0.721c-0.772-0.291-1.164-0.405-2.05-0.759c-0.886-0.367-1.961-0.886-3.29-1.253
			c-1.341-0.38-3.188-0.316-4.694,0.202c-0.228-0.278-0.43-0.595-0.582-0.911l0,0c-0.367-0.848-0.645-1.733-0.911-2.619
			c0.354,0.139,0.734,0.228,1.101,0.202c0.43-0.038,0.822-0.24,1.227-0.418c-0.127,0.747-0.101,1.518,0,2.278l0,0
			c0.076,0.266,0.253,0.569,0.569,0.531c0.316-0.076,0.493-0.392,0.696-0.62l0,0c0.329-0.405,0.683-0.797,1-1.227
			c0.747,0.443,1.506,0.873,2.353,1.113c0.582,0.165,1.202,0.114,1.797,0.165c0.013,0.519,0.076,1.037,0.139,1.556l0,0
			c0.101,0.19,0.202,0.354,0.569,0.202l0,0c0.658-0.418,1.202-0.987,1.569-1.67c0.86,0.025,1.708,0.114,2.556,0.266
			c-0.038,0.418-0.139,0.835-0.114,1.253c-0.013,0.228,0.278,0.443,0.481,0.316c0.506-0.278,1.037-0.544,1.379-1.025
			c1.177,0.481,2.379,1.063,3.695,1c1.733-0.076,3.606,0.215,5.403,0.658c-0.974-1.012-2.455-0.962-3.745-1.164
			c0.418-0.127,0.835-0.38,1.265-0.316c1.038,0.152,3.062,0.38,4.606,0.557c0.936,0.114,1.885,0.304,2.682-0.101
			c0.747-0.38,1.189-1.24,1.569-1.999c-0.038-0.974-0.354-1.898-0.747-2.784c0.797,0.177,1.531,0.633,1.746,1.607
			c0.127,0.544,0.164,1.113,0.177,1.683c0.177-0.519,0.304-1.088,0.253-1.632c-0.051-0.557-0.253-1.139-0.595-1.582
			c-0.468-0.607-1.139-1.139-1.873-1.354c-0.62-0.19-1.329-0.127-1.949,0.076c-0.848,0.266-1.518,0.924-2.214,1.455
			c-1.189,0.886-2.164,1.974-3.391,2.872c-0.949,0.696-2.012,1.48-3.188,1.544c-0.822,0.038-1.569-0.202-2.265-0.544
			c-0.987-0.481-2.062-0.848-3.151-1.088c-0.063-0.291-0.164-0.582-0.291-0.86c-0.228-0.38-0.468-0.759-0.822-1.038
			c-0.177-0.152-0.468-0.101-0.62,0.076c-0.127,0.215-0.177,0.456-0.266,0.683l0,0l0,0c-0.101,0.316-0.177,0.645-0.278,0.962
			c-1.063-0.051-2.126-0.076-3.188-0.139c0.013-0.215,0.025-0.443,0.025-0.658c0.898,0.139,1.822,0.013,2.695-0.228l0,0
			c-0.911-0.089-1.835-0.164-2.733-0.367c-0.038-0.481-0.076-0.987-0.278-1.442c-0.139-0.304-0.607-0.304-0.797-0.051
			c-0.177,0.215-0.316,0.456-0.468,0.683c-0.342-0.215-0.671-0.481-1.05-0.658c-0.658-0.329-1.392-0.443-2.113-0.544l0,0
			c-0.114,0-0.228,0-0.342,0c0.557,0.19,1.113,0.405,1.62,0.696c0.531,0.316,0.987,0.734,1.468,1.126
			c-0.139,0.19-0.266,0.392-0.38,0.595c-1.24-0.709-2.505-1.544-3.922-1.746c-1.075-0.152-2.24-0.038-3.239,0.418
			c0.38-0.873,1.063-1.632,1.923-2.037c1.063-0.089,2.151-0.633,2.644-1.62c-0.607,0.582-1.341,1.063-2.151,1.253
			c-0.228,0.051-0.456,0.013-0.683-0.051c0.025-0.266,0.089-0.557,0.24-0.784c0.557-0.835,1.48-1.354,2.303-1.936
			c0.481-0.354,1-0.645,1.531-0.936c0.164-0.114,0.38-0.076,0.531,0.038c0.392,0.278,0.683,0.759,0.582,1.253
			c-0.557,0.342-1.253,0.683-1.544,1.202c-0.215,0.392-0.101,1.139,0.405,1.303c-0.164-0.316-0.367-0.759-0.19-1.063
			c0.367-0.62,1.278-0.987,1.999-1.303c1.101-0.468,2.265-0.924,3.48-0.848c0.24,0.177,0.405,0.443,0.506,0.721
			c0.139,0.392,0.164,0.835,0.114,1.24l0,0c0.038,0.367-0.392,0.519-0.569,0.772c0.202-0.076,0.456-0.139,0.607-0.266
			c0.038-0.038,0.114-0.089,0.139-0.114c0.633,0.342,1.189,0.81,1.632,1.379l0,0c0.304,0.367,0.519,0.81,0.772,1.215
			c-0.063-0.582-0.278-1.139-0.531-1.67l0,0c-0.165-0.266-0.367-0.519-0.607-0.734c0.544,0.025,1.113-0.013,1.632,0.228
			c0.367,0.177,0.734,0.443,1,0.759l0,0c0.443,0.481,0.784,1.075,1.037,1.67c0.013-0.633-0.266-1.227-0.62-1.733l0,0
			c-0.114-0.127-0.215-0.266-0.316-0.405c0.797,0,1.582,0.177,2.303,0.494c0,0,0,0-0.013,0c0.873,0.304,1.594,0.974,2.138,1.708
			c-0.367-0.962-1.215-1.632-2.088-2.126l0,0c-0.43-0.215-0.898-0.342-1.354-0.443c0.367-0.405,0.936-0.493,1.455-0.531
			c0.898-0.051,1.847,0.127,2.619,0.595c0.835,0.531,1.544,1.278,1.885,2.214c-0.038-0.557-0.253-1.088-0.455-1.607
			c0.443,0.506,1.025,1.037,1.695,1.113c0.493,0.051,1.05-0.114,1.404-0.519c-0.392,0.101-0.81,0.24-1.202,0.139
			c-0.304-0.076-0.595-0.266-0.747-0.557c0.734,0.025,1.493,0.139,2.202-0.139c-0.329,0.013-0.658,0.038-0.987-0.013
			c-0.595-0.114-1.139-0.392-1.695-0.62c1.113-0.24,2.265-0.291,3.404-0.19c-0.164-0.114-0.354-0.19-0.544-0.266
			c0.506-0.266,0.962-0.658,1.151-1.202c0.19,0.164,0.329,0.367,0.481,0.569c-0.089-0.405-0.127-0.86-0.367-1.215
			c-0.405-0.607-1.063-0.709-1.67-0.709c-1.303,0.367-2.227,1.43-3.226,2.278c-0.291,0.215-0.62,0.531-1.012,0.392
			c-0.468-0.228-0.911-0.506-1.366-0.747c-0.114-0.582,0.291-1.025,0.671-1.404c-0.076,0.304-0.076,0.582,0.101,0.86
			c0.291,0.253,0.544,0.177,0.886,0.038c0.683-0.278,1.113-0.81,1.67-1.265c0.544-0.443,1.24-0.898,1.885-1.139
			c0.291-0.114,0.835-0.152,1.126-0.076c0.468,0.127,1.012,0.278,1.404,0.569c0.418,0.316,0.582,1.164,0.822,1.632
			c-0.215-0.101-0.367-0.127-0.582-0.228c0.24,0.519,0.202,0.974,0.19,1.544c-1.038,0.696-1.885,1.632-2.86,2.417
			c-0.962,0.772-1.974,1.468-2.923,2.252c0.696-0.278,1.265-0.784,1.923-1.113c-0.392,0.557-0.772,1.177-1.151,1.784
			c1.025-0.987,2.48-2.543,3.72-3.695c0.228-0.215,0.43-0.456,0.709-0.607c0.962-0.569,2.037-1.025,3.163-1.151
			c0.721,0.177,1.354,0.607,1.86,1.139c0.544,0.569,1.063,1.164,1.455,1.847c0.494,0.886,0.747,1.873,1.05,2.834
			C46.411,11.907,46.576,12.502,46.689,13.109z M15.298,9.276c0.607,0.19,1.126,0.582,1.645,0.949
			c-0.493,0.595-0.962,1.202-1.493,1.759c-0.177-0.127-0.164-0.354-0.202-0.544C15.121,10.718,15.197,9.984,15.298,9.276z
			 M18.6,10.541c0.443-0.645,0.848-1.329,1.316-1.961c0.038,0,0.114,0.013,0.152,0.025c0.278,0.81,0.304,1.695,0.253,2.543
			C19.714,11.098,19.157,10.794,18.6,10.541z M21.675,11.553c0.569-0.038,1.139-0.051,1.696,0.013
			c-0.215,0.481-0.544,0.924-0.924,1.278c-0.177,0.165-0.38,0.342-0.633,0.392C21.738,12.667,21.713,12.11,21.675,11.553z
			 M24.243,11.363c0.063-0.342,0.177-0.658,0.291-0.987c0.076-0.215,0.139-0.43,0.278-0.607c0.506,0.468,0.873,1.075,1.037,1.746
			C25.306,11.553,24.775,11.439,24.243,11.363z M26.318,13.021c0.013-0.367,0.089-0.696,0.127-1.037
			c0.43,0.101,0.86,0.202,1.265,0.392c-0.329,0.443-0.772,0.822-1.303,0.987C26.242,13.35,26.306,13.135,26.318,13.021z
			 M41.527,10.528c-0.139,0.354-0.266,0.747-0.557,1.012c-0.089-0.506-0.19-1.012-0.38-1.493c-0.152-0.354-0.607-0.607-0.595-1
			c0.013-0.291,0.19-0.62,0.481-0.734c0.468-0.19,1.012,0.101,1.189,0.557C41.856,9.389,41.729,10.009,41.527,10.528z
			 M41.907,10.085c0.329,0.19,0.43,0.607,0.455,0.962c0.051,0.519,0.063,1.164-0.38,1.518c-0.266,0.215-0.696,0.051-0.759-0.278
			c-0.114-0.304,0.127-0.544,0.266-0.784C41.729,11.098,41.793,10.566,41.907,10.085z M40.477,10.629
			c0.228,0.595,0.24,1.291,0.076,1.911c-0.063,0.291-0.418,0.38-0.658,0.253c-0.304-0.152-0.633-0.367-0.734-0.709
			c-0.089-0.316,0.127-0.607,0.228-0.898c0.152-0.418,0.354-0.886,0.544-1.215C40.211,10.06,40.376,10.364,40.477,10.629z
			 M38.604,11.439c-0.215-0.316-0.089-0.721-0.215-1.063c-0.089-0.24-0.228-0.468-0.405-0.671c0.392-0.354,0.81-0.721,1.354-0.835
			c0.101,0.089,0.139,0.228,0.139,0.354C39.477,10.022,39.275,10.933,38.604,11.439z M38.149,12.413
			c-0.152,0.24-0.519,0.266-0.797,0.24c-0.202-0.038-0.506-0.063-0.569-0.304c0.038-0.215,0.304-0.266,0.418-0.43
			c0.291-0.392,0.342-0.936,0.709-1.278C38.212,11.161,38.465,11.907,38.149,12.413z M36.732,11.907
			c-0.127-0.291-0.329-0.582-0.645-0.683c0.367-0.443,0.772-0.873,1.303-1.113C37.415,10.769,37.187,11.439,36.732,11.907z
			 M34.821,4.632c0.291-0.367,0.683-0.645,1.101-0.848c0.316,0.051,0.645,0.139,0.848,0.405c0.354,0.43,0.278,1.075-0.076,1.48
			c-0.506-0.038-1.012-0.025-1.506,0.038c-0.165,0.063-0.228-0.114-0.291-0.215C34.745,5.227,34.682,4.898,34.821,4.632z
			 M45.93,8.605c-0.278-0.531-0.633-1.025-0.974-1.518c-0.304-0.443-0.62-0.886-0.949-1.316c0.81-0.19,1.632-0.164,2.455-0.114
			C46.487,6.656,46.398,7.694,45.93,8.605z"/>
	</g>
</g>
</svg>
